<!--?xml version="1.0" encoding="utf-8"?-->
<!-- Generator: Adobe Illustrator 26.5.2, SVG Export Plug-In . SVG Version: 6.00 Build 0)  -->
<svg version="1.1" id="Layer_1" xmlns="http://www.w3.org/2000/svg" xmlns:xlink="http://www.w3.org/1999/xlink" x="0px" y="0px" viewBox="0 0 300 300" style="" xml:space="preserve">
<style type="text/css">
	.st0{fill:none;stroke:#000000;stroke-miterlimit:10;}
	.st1{fill:#231F20;}
	.st2{fill:none;stroke:#1B150B;stroke-width:4;stroke-miterlimit:10;}
</style>
<path class="st0 mnJBOBLS_0" d="M339,36.3"></path>
<g>
	<path class="st1 mnJBOBLS_1" d="M146.5,155.6l-0.5-11.6l-0.5-11.7l-0.4-11.7c-0.1-3.9-0.3-7.8-0.2-11.7l0.1-5.1l2.7,4.3c2,3.2,4.1,6.3,6.1,9.5
		l6.2,9.4l-2.5,0l13.8-19.5l2.7-3.9v4.7v45.9l-1.5-1.5h17.2l-1.5,1.5v-52.1h3v25.7l-2.6-1.1l25-25.3l2.1,2.1l-12.5,12.6l-6.2,6.3
		c-2.1,2.1-4.2,4.1-6.4,6.2l0-1.8l12.6,13.9c4.2,4.6,8.4,9.3,12.5,13.9c-4.5-4.3-9-8.6-13.5-13l-13.5-13l-0.9-0.9l0.9-1
		c2-2.2,4-4.4,6.1-6.5l6.3-6.3l12.5-12.6l2.1,2.1l-25,25.3l-2.6,2.6v-3.7v-25.7h3v52.1v1.5h-1.5h-17.2h-1.5v-1.5v-45.9l2.7,0.9
		L160,128.8l-1.3,1.8l-1.2-1.8l-6.2-9.4c-2.1-3.1-4.1-6.3-6.2-9.4l2.8-0.8c0,3.9-0.2,7.8-0.3,11.6l-0.4,11.6l-0.3,11.6L146.5,155.6z
		"></path>
	<path class="st2 mnJBOBLS_2" d="M146.5,155.6c-0.1-7.8-0.1-15.6-0.2-23.5c0-7.8,0-15.5,0.1-23.1c4.1,6.3,8.2,12.6,12.3,18.9
		c4.6-6.5,9.2-13,13.8-19.5c0,15.3,0,30.6,0,45.9h17.2v-26.4c0-8.6,0-17.1,0-25.7c0,8.6,0,17.1,0,25.7c8.3-8.4,16.6-16.9,25-25.3
		c-8.3,8.4-16.6,16.9-25,25.3c8.7,9,17.4,17.9,26.1,26.9"></path>
</g>
<style data-made-with="vivus-instant">.mnJBOBLS_0{stroke-dasharray:0 2;stroke-dashoffset:1;animation:mnJBOBLS_draw 6600ms ease-in-out 0ms forwards;}.mnJBOBLS_1{stroke-dasharray:755 757;stroke-dashoffset:756;animation:mnJBOBLS_draw 6600ms ease-in-out 0ms forwards;}.mnJBOBLS_2{stroke-dasharray:343 345;stroke-dashoffset:344;animation:mnJBOBLS_draw 6600ms ease-in-out 0ms forwards;}@keyframes mnJBOBLS_draw{100%{stroke-dashoffset:0;}}@keyframes mnJBOBLS_fade{0%{stroke-opacity:1;}96.29629629629629%{stroke-opacity:1;}100%{stroke-opacity:0;}}</style></svg>
